<svg width="206" height="206" viewBox="0 0 206 206" fill="none" xmlns="http://www.w3.org/2000/svg">
<path d="M16.1705 5.92144L14.7272 5.75701C14.0179 5.67621 13.5159 6.43355 13.8667 7.05534L14.5804 8.32061C14.7177 8.56404 14.7304 8.85845 14.6145 9.11277L14.0121 10.4347C13.716 11.0843 14.2812 11.7957 14.9809 11.6543L16.4048 11.3665C16.6788 11.3111 16.9627 11.39 17.1688 11.5788L18.2398 12.5603C18.7662 13.0426 19.6174 12.7249 19.6991 12.0157L19.8654 10.5725C19.8974 10.2949 20.0602 10.0493 20.3035 9.91163L21.5678 9.19627C22.1892 8.84473 22.1501 7.93698 21.5009 7.64011L20.1797 7.036C19.9255 6.91978 19.7422 6.68904 19.6865 6.41516L19.3969 4.99163C19.2545 4.29207 18.3792 4.04871 17.8962 4.57444L16.9134 5.64423C16.7243 5.85005 16.4482 5.95308 16.1705 5.92144Z" fill="#83828D"/>
<path fill-rule="evenodd" clip-rule="evenodd" d="M203.22 165.022C203.668 164.409 204.344 164.14 205 164.176V180.057L203.772 179.162C203.237 178.773 202.549 178.663 201.92 178.866L199.709 179.578C198.101 180.097 196.584 178.574 197.108 176.969L197.828 174.76C198.033 174.132 197.925 173.443 197.538 172.907L196.177 171.025C195.187 169.656 196.166 167.743 197.855 167.745L200.178 167.747C200.839 167.748 201.461 167.432 201.851 166.898L203.22 165.022Z" fill="#83828D"/>
<path d="M189.231 172.15L188.083 171.385C187.248 170.828 186.134 171.452 186.173 172.454L186.227 173.833C186.242 174.226 186.069 174.602 185.76 174.845L184.677 175.7C183.89 176.322 184.139 177.574 185.105 177.847L186.433 178.222C186.81 178.329 187.115 178.61 187.251 178.979L187.729 180.273C188.077 181.214 189.345 181.364 189.903 180.53L190.67 179.383C190.889 179.056 191.25 178.854 191.642 178.838L193.021 178.783C194.024 178.743 194.558 177.583 193.937 176.795L193.084 175.711C192.841 175.402 192.76 174.996 192.866 174.618L193.24 173.29C193.511 172.324 192.573 171.457 191.632 171.804L190.337 172.281C189.969 172.417 189.557 172.368 189.231 172.15Z" fill="#83828D"/>
<path d="M205 164.176C204.344 164.14 203.668 164.409 203.22 165.022L201.851 166.898C201.461 167.432 200.839 167.748 200.178 167.747L197.855 167.745C196.166 167.743 195.187 169.656 196.177 171.025L197.538 172.907C197.925 173.443 198.033 174.132 197.828 174.76L197.108 176.969C196.584 178.574 198.101 180.097 199.709 179.578L201.92 178.866C202.549 178.663 203.237 178.773 203.772 179.162L205 180.057M205 164.176V180.057M205 164.176V9C205 4.58172 201.418 1 197 1H9L8.97892 1.00003C9.10236 1.31758 9.15527 1.67377 9.11493 2.05378L8.90051 4.07392C8.82467 4.78844 9.09499 5.49616 9.62785 5.97818L11.1344 7.34099C12.4955 8.5722 11.8871 10.8275 10.0915 11.2072L8.10402 11.6275C7.40103 11.7762 6.81149 12.252 6.51772 12.9077L5.68716 14.7617C4.9368 16.4366 2.60395 16.5549 1.68792 14.9646L1 13.7702V197C1 201.418 4.58172 205 9 205H188.503L188.407 203.462C188.368 202.824 188.026 202.243 187.487 201.899L181.251 197.922C179.874 197.044 180.073 194.975 181.592 194.376L188.472 191.66C189.066 191.425 189.513 190.92 189.673 190.301L191.529 183.142C191.939 181.561 193.968 181.111 195.007 182.37L199.716 188.074C200.123 188.567 200.741 188.835 201.379 188.797L205 188.577V180.057M16.1705 5.92144L14.7272 5.75701C14.0179 5.67621 13.5159 6.43355 13.8667 7.05534L14.5804 8.32061C14.7177 8.56404 14.7304 8.85845 14.6145 9.11277L14.0121 10.4347C13.716 11.0843 14.2812 11.7957 14.9809 11.6543L16.4048 11.3665C16.6788 11.3111 16.9627 11.39 17.1688 11.5788L18.2398 12.5603C18.7662 13.0426 19.6174 12.7249 19.6991 12.0157L19.8654 10.5725C19.8974 10.2949 20.0602 10.0493 20.3035 9.91163L21.5678 9.19627C22.1892 8.84473 22.1501 7.93698 21.5009 7.64011L20.1797 7.036C19.9255 6.91978 19.7422 6.68904 19.6865 6.41516L19.3969 4.99163C19.2545 4.29207 18.3792 4.04871 17.8962 4.57444L16.9134 5.64423C16.7243 5.85005 16.4482 5.95308 16.1705 5.92144ZM189.231 172.15L188.083 171.385C187.248 170.828 186.134 171.452 186.173 172.454L186.227 173.833C186.242 174.226 186.069 174.602 185.76 174.845L184.677 175.7C183.89 176.322 184.139 177.574 185.105 177.847L186.433 178.222C186.81 178.329 187.115 178.61 187.251 178.979L187.729 180.273C188.077 181.214 189.345 181.364 189.903 180.53L190.67 179.383C190.889 179.056 191.25 178.854 191.642 178.838L193.021 178.783C194.024 178.743 194.558 177.583 193.937 176.795L193.084 175.711C192.841 175.402 192.76 174.996 192.866 174.618L193.24 173.29C193.511 172.324 192.573 171.457 191.632 171.804L190.337 172.281C189.969 172.417 189.557 172.368 189.231 172.15Z" stroke="#83828D" stroke-width="2"/>
</svg>
