<svg width="202" height="202" viewBox="0 0 202 202" fill="none" xmlns="http://www.w3.org/2000/svg">
<path d="M4.86676 16.0554C4.51601 15.4336 5.01797 14.6763 5.72727 14.7571L7.17063 14.9215C7.44833 14.9532 7.72441 14.8501 7.9135 14.6443L8.89628 13.5745C9.37925 13.0488 10.2546 13.2922 10.397 13.9917L10.6866 15.4152C10.7423 15.6891 10.9256 15.9199 11.1798 16.0361L12.5009 16.6402C13.1502 16.9371 13.1892 17.8448 12.5679 18.1963L11.3036 18.9117C11.0603 19.0493 10.8975 19.295 10.8655 19.5726L10.6992 21.0158C10.6175 21.725 9.76626 22.0426 9.23992 21.5603L8.16887 20.5789C7.9628 20.3901 7.67889 20.3112 7.40494 20.3665L5.98104 20.6544C5.28129 20.7958 4.71613 20.0844 5.01217 19.4348L5.61458 18.1129C5.73048 17.8585 5.71781 17.5641 5.58049 17.3207L4.86676 16.0554Z" fill="#83828D"/>
<path d="M181.517 180.63C182.95 179.738 184.791 180.847 184.672 182.532L184.509 184.849C184.462 185.509 184.734 186.151 185.239 186.577L187.016 188.073C188.308 189.161 187.821 191.255 186.183 191.662L183.928 192.223C183.287 192.382 182.76 192.839 182.511 193.451L181.637 195.603C181.001 197.168 178.86 197.353 177.966 195.92L176.736 193.949C176.386 193.388 175.789 193.028 175.13 192.981L172.813 192.814C171.128 192.693 170.291 190.714 171.377 189.421L172.872 187.642C173.297 187.136 173.455 186.457 173.296 185.815L172.738 183.56C172.333 181.921 173.957 180.513 175.522 181.147L177.676 182.018C178.288 182.266 178.983 182.207 179.544 181.857L181.517 180.63Z" fill="#83828D"/>
<path d="M167.882 169.445C168.178 168.487 169.436 168.267 170.038 169.069L170.867 170.172C171.103 170.486 171.475 170.669 171.868 170.663L173.248 170.642C174.251 170.627 174.848 171.755 174.272 172.577L173.479 173.706C173.253 174.027 173.195 174.437 173.322 174.809L173.768 176.115C174.092 177.064 173.204 177.981 172.245 177.687L170.925 177.282C170.55 177.166 170.142 177.238 169.828 177.473L168.724 178.301C167.921 178.903 166.774 178.341 166.758 177.338L166.736 175.958C166.729 175.565 166.536 175.199 166.214 174.973L165.086 174.179C164.266 173.601 164.446 172.337 165.395 172.012L166.7 171.564C167.071 171.437 167.36 171.139 167.475 170.764L167.882 169.445Z" fill="#83828D"/>
<path d="M4.86676 16.0554C4.51601 15.4336 5.01797 14.6763 5.72727 14.7571L7.17063 14.9215C7.44833 14.9532 7.72441 14.8501 7.9135 14.6443L8.89628 13.5745C9.37925 13.0488 10.2546 13.2922 10.397 13.9917L10.6866 15.4152C10.7423 15.6891 10.9256 15.9199 11.1798 16.0361L12.5009 16.6402C13.1502 16.9371 13.1892 17.8448 12.5679 18.1963L11.3036 18.9117C11.0603 19.0493 10.8975 19.295 10.8655 19.5726L10.6992 21.0158C10.6175 21.725 9.76626 22.0426 9.23992 21.5603L8.16887 20.5789C7.9628 20.3901 7.67889 20.3112 7.40494 20.3665L5.98104 20.6544C5.28129 20.7958 4.71613 20.0844 5.01217 19.4348L5.61458 18.1129C5.73048 17.8585 5.71781 17.5641 5.58049 17.3207L4.86676 16.0554Z" stroke="#83828D" stroke-width="2"/>
<path d="M181.517 180.63C182.95 179.738 184.791 180.847 184.672 182.532L184.509 184.849C184.462 185.509 184.734 186.151 185.239 186.577L187.016 188.073C188.308 189.161 187.821 191.255 186.183 191.662L183.928 192.223C183.287 192.382 182.76 192.839 182.511 193.451L181.637 195.603C181.001 197.168 178.86 197.353 177.966 195.92L176.736 193.949C176.386 193.388 175.789 193.028 175.13 192.981L172.813 192.814C171.128 192.693 170.291 190.714 171.377 189.421L172.872 187.642C173.297 187.136 173.455 186.457 173.296 185.815L172.738 183.56C172.333 181.921 173.957 180.513 175.522 181.147L177.676 182.018C178.288 182.266 178.983 182.207 179.544 181.857L181.517 180.63Z" stroke="#83828D" stroke-width="2"/>
<path d="M167.882 169.445C168.178 168.487 169.436 168.267 170.038 169.069L170.867 170.172C171.103 170.486 171.475 170.669 171.868 170.663L173.248 170.642C174.251 170.627 174.848 171.755 174.272 172.577L173.479 173.706C173.253 174.027 173.195 174.437 173.322 174.809L173.768 176.115C174.092 177.064 173.204 177.981 172.245 177.687L170.925 177.282C170.55 177.166 170.142 177.238 169.828 177.473L168.724 178.301C167.921 178.903 166.774 178.341 166.758 177.338L166.736 175.958C166.729 175.565 166.536 175.199 166.214 174.973L165.086 174.179C164.266 173.601 164.446 172.337 165.395 172.012L166.7 171.564C167.071 171.437 167.36 171.139 167.475 170.764L167.882 169.445Z" stroke="#83828D" stroke-width="2"/>
<path fill-rule="evenodd" clip-rule="evenodd" d="M13.6829 2.15289L14.2338 1H193C197.418 1 201 4.58172 201 9V161.608L198.642 159.114C197.521 157.927 195.526 158.512 195.224 160.117L193.852 167.385C193.734 168.013 193.322 168.547 192.745 168.821L186.063 171.992C184.588 172.692 184.528 174.77 185.96 175.553L192.449 179.103C193.01 179.41 193.39 179.967 193.472 180.601L194.424 187.935C194.634 189.555 196.591 190.254 197.779 189.133L201 186.096V193C201 197.418 197.418 201 193 201H9C4.58173 201 1 197.418 1 193V9C1 8.05671 1.16326 7.15155 1.46306 6.31124L1.64355 6.39777C2.29146 6.70841 2.75183 7.31007 2.88226 8.01666L3.25103 10.0144C3.58418 11.8192 5.82293 12.4857 7.08895 11.1569L8.49029 9.68616C8.98594 9.16595 9.70041 8.91404 10.4127 9.00834L12.4266 9.27496C14.2461 9.51583 15.5718 7.59261 14.6992 5.97794L13.7335 4.19069C13.3919 3.55855 13.3731 2.8012 13.6829 2.15289ZM4.86676 16.0554C4.51601 15.4336 5.01797 14.6763 5.72727 14.7571L7.17063 14.9215C7.44833 14.9532 7.72441 14.8501 7.9135 14.6443L8.89628 13.5745C9.37925 13.0488 10.2546 13.2922 10.397 13.9917L10.6866 15.4152C10.7423 15.6891 10.9256 15.9199 11.1798 16.0361L12.5009 16.6402C13.1502 16.9371 13.1892 17.8448 12.5679 18.1963L11.3036 18.9117C11.0603 19.0493 10.8975 19.295 10.8655 19.5726L10.6992 21.0158C10.6175 21.725 9.76626 22.0426 9.23992 21.5603L8.16887 20.5789C7.9628 20.3901 7.67889 20.3112 7.40494 20.3665L5.98104 20.6544C5.28129 20.7958 4.71613 20.0844 5.01217 19.4348L5.61458 18.1129C5.73048 17.8585 5.71781 17.5641 5.58049 17.3207L4.86676 16.0554ZM181.517 180.63C182.95 179.738 184.791 180.847 184.672 182.532L184.509 184.849C184.462 185.509 184.734 186.151 185.239 186.577L187.016 188.073C188.308 189.161 187.821 191.255 186.183 191.662L183.928 192.223C183.287 192.382 182.76 192.839 182.511 193.451L181.637 195.603C181.001 197.168 178.86 197.353 177.966 195.92L176.736 193.949C176.386 193.388 175.789 193.028 175.13 192.981L172.813 192.814C171.128 192.693 170.291 190.714 171.377 189.421L172.872 187.642C173.297 187.136 173.455 186.457 173.296 185.815L172.738 183.56C172.333 181.921 173.957 180.513 175.522 181.147L177.676 182.018C178.288 182.266 178.983 182.207 179.544 181.857L181.517 180.63ZM167.882 169.445C168.178 168.487 169.436 168.267 170.038 169.069L170.867 170.172C171.103 170.486 171.475 170.669 171.868 170.663L173.248 170.642C174.251 170.627 174.848 171.755 174.272 172.577L173.479 173.706C173.253 174.027 173.195 174.437 173.322 174.809L173.768 176.115C174.092 177.064 173.204 177.981 172.245 177.687L170.925 177.282C170.55 177.166 170.142 177.238 169.828 177.473L168.724 178.301C167.921 178.903 166.774 178.341 166.758 177.338L166.736 175.958C166.729 175.565 166.536 175.199 166.214 174.973L165.086 174.179C164.266 173.601 164.446 172.337 165.395 172.012L166.7 171.564C167.071 171.437 167.36 171.139 167.475 170.764L167.882 169.445Z" stroke="#83828D" stroke-width="2"/>
</svg>
