<svg width="204" height="204" viewBox="0 0 204 204" fill="none" xmlns="http://www.w3.org/2000/svg">
<path d="M13.5 193.995C13.1493 193.373 13.6512 192.616 14.3605 192.697L15.8039 192.861C16.0816 192.893 16.3577 192.79 16.5467 192.584L17.5295 191.514C18.0125 190.988 18.8879 191.232 19.0302 191.931L19.3199 193.355C19.3756 193.629 19.5589 193.86 19.8131 193.976L21.1342 194.58C21.7834 194.877 21.8225 195.784 21.2012 196.136L19.9368 196.851C19.6935 196.989 19.5307 197.235 19.4988 197.512L19.3325 198.955C19.2508 199.665 18.3995 199.982 17.8732 199.5L16.8021 198.519C16.596 198.33 16.3121 198.251 16.0382 198.306L14.6143 198.594C13.9145 198.735 13.3494 198.024 13.6454 197.374L14.2478 196.053C14.3637 195.798 14.3511 195.504 14.2137 195.26L13.5 193.995Z" fill="#83828D"/>
<path d="M172.106 16.4259C172.108 15.4227 173.246 14.8443 174.058 15.4343L175.174 16.2459C175.491 16.4769 175.9 16.5422 176.274 16.4214L177.587 15.9973C178.542 15.6889 179.444 16.5927 179.133 17.5466L178.706 18.8589C178.585 19.2324 178.649 19.6414 178.879 19.9596L179.689 21.0774C180.277 21.89 179.696 23.027 178.693 23.0265L177.313 23.0259C176.92 23.0258 176.551 23.2133 176.32 23.5307L175.507 24.6457C174.915 25.4563 173.655 25.2552 173.345 24.301L172.919 22.9884C172.798 22.6148 172.505 22.3217 172.132 22.1997L170.82 21.771C169.867 21.4593 169.669 20.198 170.48 19.6087L171.597 18.7981C171.915 18.5674 172.103 18.1986 172.104 17.8059L172.106 16.4259Z" fill="#83828D"/>
<path fill-rule="evenodd" clip-rule="evenodd" d="M14.3605 192.697L15.8039 192.861C16.0816 192.893 16.3577 192.79 16.5467 192.584L17.5295 191.514C18.0125 190.988 18.8879 191.232 19.0302 191.931L19.3199 193.355C19.3756 193.629 19.5589 193.86 19.8131 193.976L21.1342 194.58C21.7834 194.877 21.8225 195.784 21.2012 196.136L19.9368 196.851C19.6935 196.989 19.5307 197.235 19.4988 197.512L19.3325 198.955C19.2508 199.665 18.3995 199.982 17.8732 199.5L16.8021 198.519C16.596 198.33 16.3121 198.251 16.0382 198.306L14.6143 198.594C13.9145 198.735 13.3494 198.024 13.6454 197.374L14.2478 196.053C14.3637 195.798 14.3511 195.504 14.2137 195.26L13.5 193.995C13.1493 193.373 13.6512 192.616 14.3605 192.697ZM174.058 15.4343L175.174 16.2459C175.491 16.4769 175.9 16.5422 176.274 16.4214L177.587 15.9973C178.542 15.6889 179.444 16.5927 179.133 17.5466L178.706 18.8589C178.585 19.2324 178.649 19.6414 178.879 19.9596L179.689 21.0774C180.277 21.89 179.696 23.027 178.693 23.0265L177.313 23.0259C176.92 23.0258 176.551 23.2133 176.32 23.5307L175.507 24.6457C174.915 25.4563 173.655 25.2552 173.345 24.301L172.919 22.9884C172.798 22.6148 172.505 22.3217 172.132 22.1997L170.82 21.771C169.867 21.4593 169.669 20.198 170.48 19.6087L171.597 18.7981C171.915 18.5674 172.103 18.1986 172.104 17.8059L172.106 16.4259C172.108 15.4227 173.246 14.8443 174.058 15.4343Z" fill="#83828D"/>
<path d="M177.531 1H165.424C164.899 1.69732 164.818 2.71097 165.432 3.51043L166.846 5.35301C167.249 5.87741 167.376 6.56269 167.19 7.19689L166.533 9.42523C166.056 11.0451 167.617 12.5232 169.208 11.9591L171.398 11.1831C172.021 10.9622 172.712 11.0526 173.258 11.4262L175.174 12.739C176.567 13.6933 178.455 12.6661 178.41 10.978L178.349 8.65579C178.332 7.99489 178.631 7.36546 179.155 6.96218L180.996 5.54519C182.334 4.5151 181.94 2.40219 180.321 1.923L178.094 1.26382C177.891 1.20397 177.702 1.11442 177.531 1Z" fill="#83828D"/>
<path d="M177.531 1H165.424M177.531 1C177.702 1.11442 177.891 1.20397 178.094 1.26382L180.321 1.923C181.94 2.40219 182.334 4.5151 180.996 5.54519L179.155 6.96218C178.631 7.36546 178.332 7.99489 178.349 8.65579L178.41 10.978C178.455 12.6661 176.567 13.6933 175.174 12.739L173.258 11.4262C172.712 11.0526 172.021 10.9622 171.398 11.1831L169.208 11.9591C167.617 12.5232 166.056 11.0451 166.533 9.42523L167.19 7.19689C167.376 6.56269 167.249 5.87741 166.846 5.35301L165.432 3.51043C164.818 2.71097 164.899 1.69732 165.424 1M177.531 1H189.39L189.759 5.13438C189.815 5.77117 189.564 6.3967 189.083 6.8175L183.515 11.6857C182.286 12.7606 182.793 14.776 184.385 15.1408L191.594 16.7932C192.217 16.9361 192.734 17.3682 192.986 17.956L195.895 24.7559C196.537 26.2572 198.611 26.3976 199.45 24.9965L203 19.0668V195C203 199.418 199.418 203 195 203H8.99999C5.29588 203 2.17975 200.483 1.26915 197.065C1.56501 197.017 1.86027 196.906 2.13928 196.723L3.83906 195.61C4.44027 195.217 5.19336 195.135 5.86541 195.389L7.76548 196.108C9.48207 196.757 11.2113 195.187 10.73 193.416L10.1972 191.455C10.0088 190.762 10.1631 190.02 10.6126 189.46L11.8834 187.875C13.0315 186.443 12.0724 184.313 10.2393 184.223L8.21019 184.124C7.49252 184.089 6.83484 183.713 6.44058 183.113L5.3259 181.414C4.31885 179.88 1.99684 180.134 1.34525 181.85L1 182.759L1 9C1 4.58172 4.58172 1 9 1H165.424M15.8039 192.861L14.3605 192.697C13.6512 192.616 13.1493 193.373 13.5 193.995L14.2137 195.26C14.3511 195.504 14.3637 195.798 14.2478 196.053L13.6454 197.374C13.3494 198.024 13.9145 198.735 14.6143 198.594L16.0382 198.306C16.3121 198.251 16.596 198.33 16.8021 198.519L17.8732 199.5C18.3995 199.982 19.2508 199.665 19.3325 198.955L19.4988 197.512C19.5307 197.235 19.6935 196.989 19.9368 196.851L21.2012 196.136C21.8225 195.784 21.7834 194.877 21.1342 194.58L19.8131 193.976C19.5589 193.86 19.3756 193.629 19.3199 193.355L19.0302 191.931C18.8879 191.232 18.0125 190.988 17.5295 191.514L16.5467 192.584C16.3577 192.79 16.0816 192.893 15.8039 192.861ZM175.174 16.2459L174.058 15.4343C173.246 14.8443 172.108 15.4227 172.106 16.4259L172.104 17.8059C172.103 18.1986 171.915 18.5674 171.597 18.7981L170.48 19.6087C169.669 20.198 169.867 21.4593 170.82 21.771L172.132 22.1997C172.505 22.3217 172.798 22.6148 172.919 22.9884L173.345 24.301C173.655 25.2552 174.915 25.4563 175.507 24.6457L176.32 23.5307C176.551 23.2133 176.92 23.0258 177.313 23.0259L178.693 23.0265C179.696 23.027 180.277 21.89 179.689 21.0774L178.879 19.9596C178.649 19.6414 178.585 19.2324 178.706 18.8589L179.133 17.5466C179.444 16.5927 178.542 15.6889 177.587 15.9973L176.274 16.4214C175.9 16.5422 175.491 16.4769 175.174 16.2459Z" stroke="#83828D" stroke-width="2"/>
</svg>
