<svg width="609" height="45" viewBox="0 0 609 45" fill="none" xmlns="http://www.w3.org/2000/svg">
<path d="M598.469 1C603.439 1 607.469 5.02943 607.469 10V16.1201L605.742 14.293L601.496 9.80078C600.935 9.20743 599.938 9.50042 599.786 10.3027L598.415 17.5703C598.237 18.5126 597.619 19.3134 596.753 19.7246L590.071 22.8955C589.334 23.2456 589.304 24.2849 590.021 24.6768L596.509 28.2266C597.35 28.6868 597.921 29.5217 598.044 30.4727L598.995 37.8076C599.1 38.6171 600.079 38.9662 600.673 38.4062L605.783 33.5879L607.469 31.999V35C607.469 39.9706 603.439 44 598.469 44H10.4756C10.4711 44 10.4688 44 10.4688 43V44C6.16729 44 2.57236 40.9834 1.68066 36.9512L1.3291 35.3584L2.9082 35.7666L3.1748 35.8486C3.78903 36.0654 4.33255 36.4646 4.72461 37.0059L5.91602 38.6514C6.51356 39.4765 7.7946 39.2765 8.1123 38.3086L8.74609 36.3779C9.06974 35.3916 9.84524 34.6191 10.833 34.2998L12.7656 33.6748C13.7351 33.3615 13.9407 32.0816 13.1182 31.4805L11.4785 30.2812C10.6404 29.6687 10.1459 28.6924 10.1475 27.6543L10.1504 25.623C10.1519 24.6043 8.99779 24.0132 8.17188 24.6094L6.52441 25.7988C5.68296 26.4065 4.6019 26.576 3.61523 26.2539L2.1582 25.7773L1.68359 25.623L1.68457 25.6221L1.46875 25.5527V10C1.46875 5.02945 5.49821 1.00002 10.4688 1H598.469Z" stroke="#83828D" stroke-width="2"/>
</svg>
