<svg width="608" height="47" viewBox="0 0 608 47" fill="none" xmlns="http://www.w3.org/2000/svg">
<path d="M586.333 12.6901C586.295 11.6876 587.409 11.0636 588.243 11.6203L589.391 12.3861C589.718 12.604 590.129 12.6526 590.498 12.5169L591.792 12.0399C592.734 11.6931 593.672 12.5597 593.4 13.5254L593.026 14.8539C592.92 15.232 593.001 15.6381 593.244 15.9466L594.098 17.0308C594.718 17.8189 594.184 18.9785 593.182 19.0187L591.803 19.0739C591.41 19.0896 591.049 19.292 590.831 19.6185L590.064 20.7655C589.506 21.5993 588.238 21.4495 587.89 20.5086L587.411 19.2142C587.275 18.8459 586.971 18.5648 586.593 18.458L585.265 18.0828C584.3 17.81 584.05 16.5578 584.838 15.9361L585.921 15.0809C586.229 14.8375 586.402 14.4615 586.387 14.069L586.333 12.6901Z" fill="#83828D"/>
<path fill-rule="evenodd" clip-rule="evenodd" d="M15.5877 5.75701L17.0311 5.92144C17.3088 5.95308 17.5848 5.85005 17.7739 5.64423L18.7567 4.57444C19.2397 4.04871 20.1151 4.29207 20.2574 4.99163L20.547 6.41516C20.6028 6.68904 20.7861 6.91978 21.0402 7.036L22.3614 7.64011C23.0106 7.93698 23.0497 8.84473 22.4283 9.19627L21.164 9.91163C20.9207 10.0493 20.7579 10.2949 20.7259 10.5725L20.5597 12.0157C20.4779 12.7249 19.6267 13.0426 19.1003 12.5603L18.0293 11.5788C17.8232 11.39 17.5393 11.3111 17.2654 11.3665L15.8415 11.6543C15.1417 11.7957 14.5766 11.0843 14.8726 10.4347L15.475 9.11277C15.5909 8.85845 15.5782 8.56404 15.4409 8.32061L14.7272 7.05534C14.3764 6.43355 14.8784 5.67621 15.5877 5.75701Z" fill="#08061F"/>
<path d="M17.0311 5.92144L15.5877 5.75701C14.8784 5.67621 14.3764 6.43355 14.7272 7.05534L15.4409 8.32061C15.5782 8.56404 15.5909 8.85845 15.475 9.11277L14.8726 10.4347C14.5766 11.0843 15.1417 11.7957 15.8415 11.6543L17.2654 11.3665C17.5393 11.3111 17.8232 11.39 18.0293 11.5788L19.1003 12.5603C19.6267 13.0426 20.4779 12.7249 20.5597 12.0157L20.7259 10.5725C20.7579 10.2949 20.9207 10.0493 21.164 9.91163L22.4283 9.19627C23.0497 8.84473 23.0106 7.93698 22.3614 7.64011L21.0402 7.036C20.7861 6.91978 20.6028 6.68904 20.547 6.41516L20.2574 4.99163C20.1151 4.29207 19.2397 4.04871 18.7567 4.57444L17.7739 5.64423C17.5848 5.85005 17.3088 5.95308 17.0311 5.92144Z" fill="#83828D"/>
<path d="M606.114 5.33777C605.792 5.47582 605.496 5.7021 605.262 6.02229L603.892 7.89842C603.503 8.43238 602.881 8.74778 602.22 8.74708L599.897 8.74463C598.208 8.74284 597.229 10.6562 598.218 12.0247L599.579 13.9072C599.967 14.443 600.075 15.1317 599.87 15.7602L599.15 17.9687C598.626 19.5742 600.143 21.0966 601.75 20.5785L603.961 19.8658C604.591 19.663 605.279 19.7732 605.813 20.1624L607 21.0264V9C607 7.68023 606.68 6.43509 606.114 5.33777Z" fill="#83828D"/>
<path d="M606.114 5.33777C605.792 5.47582 605.496 5.7021 605.262 6.02229L603.892 7.89842C603.503 8.43238 602.881 8.74778 602.22 8.74708L599.897 8.74463C598.208 8.74284 597.229 10.6562 598.218 12.0247L599.579 13.9072C599.967 14.443 600.075 15.1317 599.87 15.7602L599.15 17.9687C598.626 19.5742 600.143 21.0966 601.75 20.5785L603.961 19.8658C604.591 19.663 605.279 19.7732 605.813 20.1624L607 21.0264M607 21.0264V29.5798L603.421 29.7968C602.783 29.8355 602.165 29.5668 601.758 29.0738L597.049 23.3702C596.01 22.111 593.981 22.561 593.571 24.1417L591.715 31.3013C591.555 31.9202 591.108 32.425 590.513 32.6598L583.634 35.3756C582.115 35.9752 581.916 38.044 583.293 38.9221L589.529 42.8994C590.068 43.2432 590.41 43.8239 590.449 44.462L590.544 46H8.99999C4.58171 46 1 42.4183 1 38V13.7702L1.68792 14.9646C2.60395 16.5549 4.9368 16.4366 5.68716 14.7617L6.51772 12.9077C6.81149 12.252 7.40103 11.7762 8.10402 11.6275L10.0915 11.2072C11.8871 10.8275 12.4955 8.5722 11.1344 7.34099L9.62785 5.97818C9.09499 5.49616 8.82467 4.78844 8.90051 4.07392L9.11493 2.05378C9.15527 1.67377 9.10236 1.31758 8.97892 1.00003L9 1H599C602.099 1 604.786 2.76153 606.114 5.33777C606.68 6.43509 607 7.68023 607 9V21.0264ZM17.0311 5.92144L15.5877 5.75701C14.8784 5.67621 14.3764 6.43355 14.7272 7.05534L15.4409 8.32061C15.5782 8.56404 15.5909 8.85845 15.475 9.11277L14.8726 10.4347C14.5766 11.0843 15.1417 11.7957 15.8415 11.6543L17.2654 11.3665C17.5393 11.3111 17.8232 11.39 18.0293 11.5788L19.1003 12.5603C19.6267 13.0426 20.4779 12.7249 20.5597 12.0157L20.7259 10.5725C20.7579 10.2949 20.9207 10.0493 21.164 9.91163L22.4283 9.19627C23.0497 8.84473 23.0106 7.93698 22.3614 7.64011L21.0402 7.036C20.7861 6.91978 20.6028 6.68904 20.547 6.41516L20.2574 4.99163C20.1151 4.29207 19.2397 4.04871 18.7567 4.57444L17.7739 5.64423C17.5848 5.85005 17.3088 5.95308 17.0311 5.92144ZM589.391 12.3861L588.243 11.6203C587.409 11.0636 586.295 11.6876 586.333 12.6901L586.387 14.069C586.402 14.4615 586.229 14.8375 585.921 15.0809L584.838 15.9361C584.05 16.5578 584.3 17.81 585.265 18.0828L586.593 18.458C586.971 18.5648 587.275 18.8459 587.411 19.2142L587.89 20.5086C588.238 21.4495 589.506 21.5993 590.064 20.7655L590.831 19.6185C591.049 19.292 591.41 19.0896 591.803 19.0739L593.182 19.0187C594.184 18.9785 594.718 17.8189 594.098 17.0308L593.244 15.9466C593.001 15.6381 592.92 15.232 593.026 14.8539L593.4 13.5254C593.672 12.5597 592.734 11.6931 591.792 12.0399L590.498 12.5169C590.129 12.6526 589.718 12.604 589.391 12.3861Z" stroke="#83828D" stroke-width="2"/>
</svg>
