<svg width="205" height="204" viewBox="0 0 205 204" fill="none" xmlns="http://www.w3.org/2000/svg">
<path d="M194.469 1C199.439 1 203.469 5.02943 203.469 10V16.1201L201.742 14.293L197.496 9.80078C196.935 9.20744 195.938 9.50041 195.786 10.3027L194.415 17.5703C194.237 18.5126 193.619 19.3134 192.753 19.7246L186.071 22.8955C185.334 23.2456 185.304 24.2849 186.021 24.6768L192.509 28.2266C193.35 28.6868 193.921 29.5217 194.044 30.4727L194.995 37.8076C195.1 38.6171 196.079 38.9662 196.673 38.4062L201.783 33.5879L203.469 31.999V194C203.469 198.971 199.439 203 194.469 203H10.4688C6.16729 203 2.57236 199.983 1.68066 195.951L1.3291 194.358L2.9082 194.767L3.1748 194.849C3.78903 195.065 4.33255 195.465 4.72461 196.006L5.91602 197.651C6.51356 198.476 7.7946 198.276 8.1123 197.309L8.74609 195.378C9.06974 194.392 9.84524 193.619 10.833 193.3L12.7656 192.675C13.7351 192.361 13.9407 191.082 13.1182 190.48L11.4785 189.281C10.6404 188.669 10.1459 187.692 10.1475 186.654L10.1504 184.623C10.1519 183.604 8.99779 183.013 8.17188 183.609L6.52441 184.799C5.68296 185.407 4.6019 185.576 3.61523 185.254L2.1582 184.777L1.68359 184.623L1.68457 184.622L1.46875 184.553V10C1.46875 5.02945 5.49821 1.00002 10.4688 1H194.469Z" stroke="#83828D" stroke-width="2"/>
</svg>
