<svg width="206" height="206" viewBox="0 0 206 206" fill="none" xmlns="http://www.w3.org/2000/svg">
<path d="M5.17279 22.4586C4.93014 21.7872 5.55087 21.1238 6.23692 21.3212L7.63295 21.723C7.90153 21.8003 8.19089 21.7445 8.41152 21.573L9.55829 20.6812C10.1218 20.2429 10.9447 20.6283 10.9689 21.3417L11.0182 22.7936C11.0276 23.0729 11.1701 23.3309 11.4014 23.4877L12.6039 24.3028C13.1949 24.7033 13.0827 25.605 12.4116 25.8485L11.046 26.344C10.7833 26.4393 10.582 26.6545 10.5043 26.923L10.1007 28.3185C9.90242 29.0043 9.01025 29.1762 8.57128 28.6132L7.67804 27.4676C7.50618 27.2472 7.23931 27.1222 6.95997 27.1313L5.50805 27.1788C4.79453 27.2021 4.35533 26.4067 4.75512 25.8152L5.56864 24.6117C5.72515 24.3801 5.76154 24.0877 5.66654 23.8248L5.17279 22.4586Z" fill="#83828D"/>
<path d="M175.31 184.226L174.162 183.46C173.327 182.903 172.214 183.527 172.252 184.529L172.306 185.908C172.321 186.301 172.148 186.677 171.84 186.92L170.757 187.776C169.969 188.397 170.218 189.649 171.184 189.922L172.512 190.297C172.89 190.404 173.194 190.685 173.33 191.054L173.809 192.348C174.157 193.289 175.425 193.439 175.982 192.605L176.75 191.458C176.968 191.131 177.329 190.929 177.722 190.913L179.101 190.858C180.103 190.818 180.637 189.658 180.017 188.87L179.163 187.786C178.92 187.478 178.839 187.071 178.945 186.693L179.319 185.365C179.59 184.399 178.653 183.533 177.711 183.879L176.416 184.356C176.048 184.492 175.637 184.443 175.31 184.226Z" fill="#83828D"/>
<path fill-rule="evenodd" clip-rule="evenodd" d="M7.63295 21.723L6.23692 21.3212C5.55087 21.1238 4.93014 21.7872 5.17279 22.4586L5.66654 23.8248C5.76154 24.0877 5.72515 24.3801 5.56864 24.6117L4.75512 25.8152C4.35533 26.4067 4.79453 27.2021 5.50805 27.1788L6.95997 27.1313C7.23931 27.1222 7.50618 27.2472 7.67804 27.4676L8.57128 28.6132C9.01025 29.1762 9.90242 29.0043 10.1007 28.3185L10.5043 26.923C10.582 26.6545 10.7833 26.4393 11.046 26.344L12.4116 25.8485C13.0827 25.605 13.1949 24.7033 12.6039 24.3028L11.4014 23.4877C11.1701 23.3309 11.0276 23.0729 11.0182 22.7936L10.9689 21.3417C10.9447 20.6283 10.1218 20.2429 9.55829 20.6812L8.41152 21.573C8.19089 21.7445 7.90153 21.8003 7.63295 21.723Z" fill="#83828D"/>
<path d="M172.537 205C173.23 204.289 173.381 203.104 172.653 202.227L171.169 200.439C170.747 199.93 170.594 199.25 170.757 198.609L171.328 196.358C171.744 194.721 170.129 193.303 168.559 193.927L166.401 194.785C165.786 195.029 165.092 194.965 164.533 194.612L162.568 193.373C161.14 192.472 159.292 193.57 159.401 195.255L159.55 197.573C159.592 198.233 159.317 198.873 158.809 199.296L157.023 200.781C155.724 201.861 156.198 203.958 157.834 204.375L160.085 204.95C160.141 204.964 160.197 204.981 160.251 205H172.537Z" fill="#83828D"/>
<path d="M172.537 205C173.23 204.289 173.381 203.104 172.653 202.227L171.169 200.439C170.747 199.93 170.594 199.25 170.757 198.609L171.328 196.358C171.744 194.721 170.129 193.303 168.559 193.927L166.401 194.785C165.786 195.029 165.092 194.965 164.533 194.612L162.568 193.373C161.14 192.472 159.292 193.57 159.401 195.255L159.55 197.573C159.592 198.233 159.317 198.873 158.809 199.296L157.023 200.781C155.724 201.861 156.198 203.958 157.834 204.375L160.085 204.95C160.141 204.964 160.197 204.981 160.251 205M172.537 205H160.251M172.537 205H180.269L176.234 199.662C175.249 198.36 176.156 196.49 177.789 196.457L185.184 196.307C185.823 196.294 186.417 195.976 186.783 195.452L191.016 189.387C191.95 188.047 194.009 188.332 194.545 189.875L196.973 196.861C197.183 197.465 197.669 197.932 198.28 198.118L204.424 199.986C204.796 199.063 205 198.056 205 197V9C205 4.58172 201.418 1 197 1H9C6.78921 1 4.78787 1.89677 3.3399 3.34639C3.5753 3.5085 3.78642 3.72199 3.95786 3.98842L5.05715 5.69679C5.44596 6.30103 6.10021 6.68299 6.81754 6.72451L8.84563 6.84192C10.6779 6.948 11.6177 9.08646 10.4567 10.5079L9.17164 12.0813C8.71712 12.6378 8.55603 13.3781 8.7382 14.0731L9.25325 16.0383C9.71857 17.8136 7.97517 19.3682 6.26452 18.7033L4.37103 17.9674C3.7013 17.7071 2.94749 17.7826 2.34275 18.1707L1 19.0322V197C1 201.418 4.58171 205 8.99999 205H160.251M7.63295 21.723L6.23692 21.3212C5.55087 21.1238 4.93014 21.7872 5.17279 22.4586L5.66654 23.8248C5.76154 24.0877 5.72515 24.3801 5.56864 24.6117L4.75512 25.8152C4.35533 26.4067 4.79453 27.2021 5.50805 27.1788L6.95997 27.1313C7.23931 27.1222 7.50618 27.2472 7.67804 27.4676L8.57128 28.6132C9.01025 29.1762 9.90242 29.0043 10.1007 28.3185L10.5043 26.923C10.582 26.6545 10.7833 26.4393 11.046 26.344L12.4116 25.8485C13.0827 25.605 13.1949 24.7033 12.6039 24.3028L11.4014 23.4877C11.1701 23.3309 11.0276 23.0729 11.0182 22.7936L10.9689 21.3417C10.9447 20.6283 10.1218 20.2429 9.55829 20.6812L8.41152 21.573C8.19089 21.7445 7.90153 21.8003 7.63295 21.723ZM175.31 184.226L174.162 183.46C173.327 182.903 172.214 183.527 172.252 184.529L172.306 185.908C172.321 186.301 172.148 186.677 171.84 186.92L170.757 187.776C169.969 188.397 170.218 189.649 171.184 189.922L172.512 190.297C172.89 190.404 173.194 190.685 173.33 191.054L173.809 192.348C174.157 193.289 175.425 193.439 175.982 192.605L176.75 191.458C176.968 191.131 177.329 190.929 177.722 190.913L179.101 190.858C180.103 190.818 180.637 189.658 180.017 188.87L179.163 187.786C178.92 187.478 178.839 187.071 178.945 186.693L179.319 185.365C179.59 184.399 178.653 183.533 177.711 183.879L176.416 184.356C176.048 184.492 175.637 184.443 175.31 184.226Z" stroke="#83828D" stroke-width="2"/>
</svg>
