<svg width="608" height="47" viewBox="0 0 608 47" fill="none" xmlns="http://www.w3.org/2000/svg">
<path d="M5.17279 22.4586C4.93014 21.7872 5.55087 21.1238 6.23692 21.3212L7.63295 21.723C7.90153 21.8003 8.19089 21.7445 8.41152 21.573L9.55829 20.6812C10.1218 20.2429 10.9447 20.6283 10.9689 21.3417L11.0182 22.7936C11.0276 23.0729 11.1701 23.3309 11.4014 23.4877L12.6039 24.3028C13.1949 24.7033 13.0827 25.605 12.4116 25.8485L11.046 26.344C10.7833 26.4393 10.582 26.6545 10.5043 26.923L10.1007 28.3185C9.90242 29.0043 9.01025 29.1762 8.57128 28.6132L7.67804 27.4676C7.50618 27.2472 7.23931 27.1222 6.95997 27.1313L5.50805 27.1788C4.79453 27.2021 4.35533 26.4067 4.75512 25.8152L5.56864 24.6117C5.72515 24.3801 5.76154 24.0877 5.66654 23.8248L5.17279 22.4586Z" fill="#83828D"/>
<path d="M577.31 25.2255L576.162 24.4597C575.327 23.903 574.214 24.5271 574.252 25.5295L574.306 26.9084C574.321 27.3009 574.148 27.677 573.84 27.9204L572.757 28.7755C571.969 29.3972 572.218 30.6494 573.184 30.9222L574.512 31.2975C574.89 31.4043 575.194 31.6853 575.33 32.0537L575.809 33.348C576.157 34.2889 577.425 34.4388 577.982 33.6049L578.75 32.4579C578.968 32.1315 579.329 31.9291 579.722 31.9133L581.101 31.8581C582.103 31.8179 582.637 30.6583 582.017 29.8702L581.163 28.7861C580.92 28.4775 580.839 28.0714 580.945 27.6933L581.319 26.3648C581.59 25.3991 580.653 24.5326 579.711 24.8793L578.416 25.3563C578.048 25.4921 577.637 25.4434 577.31 25.2255Z" fill="#83828D"/>
<path fill-rule="evenodd" clip-rule="evenodd" d="M7.63295 21.723L6.23692 21.3212C5.55087 21.1238 4.93014 21.7872 5.17279 22.4586L5.66654 23.8248C5.76154 24.0877 5.72515 24.3801 5.56864 24.6117L4.75512 25.8152C4.35533 26.4067 4.79453 27.2021 5.50805 27.1788L6.95997 27.1313C7.23931 27.1222 7.50618 27.2472 7.67804 27.4676L8.57128 28.6132C9.01025 29.1762 9.90242 29.0043 10.1007 28.3185L10.5043 26.923C10.582 26.6545 10.7833 26.4393 11.046 26.344L12.4116 25.8485C13.0827 25.605 13.1949 24.7033 12.6039 24.3028L11.4014 23.4877C11.1701 23.3309 11.0276 23.0729 11.0182 22.7936L10.9689 21.3417C10.9447 20.6283 10.1218 20.2429 9.55829 20.6812L8.41152 21.573C8.19089 21.7445 7.90153 21.8003 7.63295 21.723Z" fill="#83828D"/>
<path d="M574.537 46C575.23 45.2887 575.381 44.1039 574.653 43.2265L573.169 41.4387C572.747 40.9299 572.594 40.2499 572.757 39.6091L573.328 37.3576C573.744 35.7208 572.129 34.3028 570.559 34.9266L568.401 35.7848C567.786 36.0291 567.092 35.9649 566.533 35.6121L564.568 34.3727C563.14 33.4717 561.292 34.5696 561.401 36.2548L561.55 38.573C561.592 39.2327 561.317 39.873 560.809 40.2958L559.023 41.7814C557.724 42.8613 558.198 44.9578 559.834 45.3755L562.085 45.95C562.141 45.9644 562.197 45.9811 562.251 46H574.537Z" fill="#83828D"/>
<path d="M574.537 46C575.23 45.2887 575.381 44.1039 574.653 43.2265L573.169 41.4387C572.747 40.9299 572.594 40.2499 572.757 39.6091L573.328 37.3576C573.744 35.7208 572.129 34.3028 570.559 34.9266L568.401 35.7848C567.786 36.0291 567.092 35.9649 566.533 35.6121L564.568 34.3727C563.14 33.4717 561.292 34.5696 561.401 36.2548L561.55 38.573C561.592 39.2327 561.317 39.873 560.809 40.2958L559.023 41.7814C557.724 42.8613 558.198 44.9578 559.834 45.3755L562.085 45.95C562.141 45.9644 562.197 45.9811 562.251 46M574.537 46H562.251M574.537 46H582.269L578.234 40.6624C577.249 39.3598 578.156 37.4898 579.789 37.4567L587.184 37.3067C587.823 37.2937 588.417 36.9759 588.783 36.4517L593.016 30.3865C593.95 29.0474 596.009 29.3322 596.545 30.8747L598.973 37.861C599.183 38.4649 599.669 38.932 600.28 39.118L606.424 40.9859C606.796 40.0633 607 39.0555 607 38V9C607 4.58172 603.418 1 599 1H9C6.78921 1 4.78787 1.89677 3.3399 3.34639C3.5753 3.5085 3.78642 3.72199 3.95786 3.98842L5.05715 5.69679C5.44596 6.30103 6.10021 6.68299 6.81754 6.72451L8.84563 6.84192C10.6779 6.948 11.6177 9.08646 10.4567 10.5079L9.17164 12.0813C8.71712 12.6378 8.55603 13.3781 8.7382 14.0731L9.25325 16.0383C9.71857 17.8136 7.97517 19.3682 6.26452 18.7033L4.37103 17.9674C3.7013 17.7071 2.94749 17.7826 2.34275 18.1707L1 19.0322V38C1 42.4183 4.58171 46 8.99999 46H562.251M7.63295 21.723L6.23692 21.3212C5.55087 21.1238 4.93014 21.7872 5.17279 22.4586L5.66654 23.8248C5.76154 24.0877 5.72515 24.3801 5.56864 24.6117L4.75512 25.8152C4.35533 26.4067 4.79453 27.2021 5.50805 27.1788L6.95997 27.1313C7.23931 27.1222 7.50618 27.2472 7.67804 27.4676L8.57128 28.6132C9.01025 29.1762 9.90242 29.0043 10.1007 28.3185L10.5043 26.923C10.582 26.6545 10.7833 26.4393 11.046 26.344L12.4116 25.8485C13.0827 25.605 13.1949 24.7033 12.6039 24.3028L11.4014 23.4877C11.1701 23.3309 11.0276 23.0729 11.0182 22.7936L10.9689 21.3417C10.9447 20.6283 10.1218 20.2429 9.55829 20.6812L8.41152 21.573C8.19089 21.7445 7.90153 21.8003 7.63295 21.723ZM577.31 25.2255L576.162 24.4597C575.327 23.903 574.214 24.5271 574.252 25.5295L574.306 26.9084C574.321 27.3009 574.148 27.677 573.84 27.9204L572.757 28.7755C571.969 29.3972 572.218 30.6494 573.184 30.9222L574.512 31.2975C574.89 31.4043 575.194 31.6853 575.33 32.0537L575.809 33.348C576.157 34.2889 577.425 34.4388 577.982 33.6049L578.75 32.4579C578.968 32.1315 579.329 31.9291 579.722 31.9133L581.101 31.8581C582.103 31.8179 582.637 30.6583 582.017 29.8702L581.163 28.7861C580.92 28.4775 580.839 28.0714 580.945 27.6933L581.319 26.3648C581.59 25.3991 580.653 24.5326 579.711 24.8793L578.416 25.3563C578.048 25.4921 577.637 25.4434 577.31 25.2255Z" stroke="#83828D" stroke-width="2"/>
</svg>
