<svg width="606" height="45" viewBox="0 0 606 45" fill="none" xmlns="http://www.w3.org/2000/svg">
<path d="M4.86676 16.0554C4.51601 15.4336 5.01797 14.6763 5.72727 14.7571L7.17063 14.9215C7.44833 14.9532 7.72441 14.8501 7.9135 14.6443L8.89628 13.5745C9.37925 13.0488 10.2546 13.2922 10.397 13.9917L10.6866 15.4152C10.7423 15.6891 10.9256 15.9199 11.1798 16.0361L12.5009 16.6402C13.1502 16.9371 13.1892 17.8448 12.5679 18.1963L11.3036 18.9117C11.0603 19.0493 10.8975 19.295 10.8655 19.5726L10.6992 21.0158C10.6175 21.725 9.76626 22.0426 9.23992 21.5603L8.16887 20.5789C7.9628 20.3901 7.67889 20.3112 7.40494 20.3665L5.98104 20.6544C5.28129 20.7958 4.71613 20.0844 5.01217 19.4348L5.61458 18.1129C5.73048 17.8585 5.71781 17.5641 5.58049 17.3207L4.86676 16.0554Z" fill="#83828D"/>
<path d="M585.517 23.6301C586.95 22.738 588.791 23.8474 588.672 25.5319L588.509 27.8491C588.462 28.5086 588.734 29.1506 589.239 29.5766L591.016 31.0732C592.308 32.1612 591.821 34.2548 590.182 34.6622L587.928 35.2227C587.287 35.3822 586.76 35.8388 586.511 36.4514L585.637 38.6035C585.001 40.168 582.86 40.3525 581.966 38.9198L580.736 36.949C580.386 36.3881 579.789 36.0283 579.13 35.9809L576.813 35.8144C575.128 35.6933 574.291 33.7138 575.377 32.4209L576.872 30.6424C577.297 30.1362 577.455 29.4572 577.296 28.8154L576.738 26.5603C576.333 24.921 577.957 23.5131 579.522 24.1467L581.676 25.0183C582.288 25.2664 582.983 25.2066 583.544 24.8573L585.517 23.6301Z" fill="#83828D"/>
<path d="M571.882 12.4455C572.178 11.4869 573.436 11.2675 574.038 12.0694L574.867 13.1725C575.103 13.4864 575.475 13.6686 575.868 13.6627L577.248 13.6421C578.251 13.6271 578.848 14.7555 578.272 15.5766L577.479 16.706C577.253 17.0275 577.195 17.4374 577.322 17.8091L577.768 19.115C578.092 20.0643 577.204 20.9811 576.245 20.6867L574.925 20.2816C574.55 20.1664 574.142 20.2375 573.828 20.4731L572.724 21.3008C571.921 21.9026 570.774 21.3408 570.758 20.3377L570.736 18.9579C570.729 18.5652 570.536 18.1992 570.214 17.9732L569.086 17.1788C568.266 16.6014 568.446 15.3374 569.395 15.0119L570.7 14.5642C571.071 14.4368 571.36 14.1394 571.475 13.7641L571.882 12.4455Z" fill="#83828D"/>
<path d="M4.86676 16.0554C4.51601 15.4336 5.01797 14.6763 5.72727 14.7571L7.17063 14.9215C7.44833 14.9532 7.72441 14.8501 7.9135 14.6443L8.89628 13.5745C9.37925 13.0488 10.2546 13.2922 10.397 13.9917L10.6866 15.4152C10.7423 15.6891 10.9256 15.9199 11.1798 16.0361L12.5009 16.6402C13.1502 16.9371 13.1892 17.8448 12.5679 18.1963L11.3036 18.9117C11.0603 19.0493 10.8975 19.295 10.8655 19.5726L10.6992 21.0158C10.6175 21.725 9.76626 22.0426 9.23992 21.5603L8.16887 20.5789C7.9628 20.3901 7.67889 20.3112 7.40494 20.3665L5.98104 20.6544C5.28129 20.7958 4.71613 20.0844 5.01217 19.4348L5.61458 18.1129C5.73048 17.8585 5.71781 17.5641 5.58049 17.3207L4.86676 16.0554Z" stroke="#83828D" stroke-width="2"/>
<path d="M585.517 23.6301C586.95 22.738 588.791 23.8474 588.672 25.5319L588.509 27.8491C588.462 28.5086 588.734 29.1506 589.239 29.5766L591.016 31.0732C592.308 32.1612 591.821 34.2548 590.182 34.6622L587.928 35.2227C587.287 35.3822 586.76 35.8388 586.511 36.4514L585.637 38.6035C585.001 40.168 582.86 40.3525 581.966 38.9198L580.736 36.949C580.386 36.3881 579.789 36.0283 579.13 35.9809L576.813 35.8144C575.128 35.6933 574.291 33.7138 575.377 32.4209L576.872 30.6424C577.297 30.1362 577.455 29.4572 577.296 28.8154L576.738 26.5603C576.333 24.921 577.957 23.5131 579.522 24.1467L581.676 25.0183C582.288 25.2664 582.983 25.2066 583.544 24.8573L585.517 23.6301Z" stroke="#83828D" stroke-width="2"/>
<path d="M571.882 12.4455C572.178 11.4869 573.436 11.2675 574.038 12.0694L574.867 13.1725C575.103 13.4864 575.475 13.6686 575.868 13.6627L577.248 13.6421C578.251 13.6271 578.848 14.7555 578.272 15.5766L577.479 16.706C577.253 17.0275 577.195 17.4374 577.322 17.8091L577.768 19.115C578.092 20.0643 577.204 20.9811 576.245 20.6867L574.925 20.2816C574.55 20.1664 574.142 20.2375 573.828 20.4731L572.724 21.3008C571.921 21.9026 570.774 21.3408 570.758 20.3377L570.736 18.9579C570.729 18.5652 570.536 18.1992 570.214 17.9732L569.086 17.1788C568.266 16.6014 568.446 15.3374 569.395 15.0119L570.7 14.5642C571.071 14.4368 571.36 14.1394 571.475 13.7641L571.882 12.4455Z" stroke="#83828D" stroke-width="2"/>
<path fill-rule="evenodd" clip-rule="evenodd" d="M13.6829 2.15289L14.2338 1H597C601.418 1 605 4.58172 605 9V4.60788L602.642 2.11375C601.521 0.927078 599.526 1.51222 599.224 3.11687L597.852 10.3848C597.734 11.013 597.322 11.5467 596.745 11.8208L590.063 14.992C588.588 15.6922 588.528 17.7696 589.96 18.5534L596.449 22.1034C597.01 22.4103 597.39 22.9668 597.472 23.6008L598.424 30.9355C598.634 32.5549 600.591 33.2536 601.779 32.1334L605 29.0963V36C605 40.4183 601.418 44 597 44H9C4.58173 44 1 40.4183 1 36V9C1 8.05671 1.16326 7.15155 1.46306 6.31124L1.64355 6.39777C2.29146 6.70841 2.75183 7.31007 2.88226 8.01666L3.25103 10.0144C3.58418 11.8192 5.82293 12.4857 7.08895 11.1569L8.49029 9.68616C8.98594 9.16595 9.70041 8.91404 10.4127 9.00834L12.4266 9.27496C14.2461 9.51584 15.5718 7.5926 14.6992 5.97794L13.7335 4.19069C13.3919 3.55855 13.3731 2.8012 13.6829 2.15289ZM4.86676 16.0554C4.51601 15.4336 5.01797 14.6763 5.72727 14.7571L7.17063 14.9215C7.44833 14.9532 7.72441 14.8501 7.9135 14.6443L8.89628 13.5745C9.37925 13.0488 10.2546 13.2922 10.397 13.9917L10.6866 15.4152C10.7423 15.6891 10.9256 15.9199 11.1798 16.0361L12.5009 16.6402C13.1502 16.9371 13.1892 17.8448 12.5679 18.1963L11.3036 18.9117C11.0603 19.0493 10.8975 19.295 10.8655 19.5726L10.6992 21.0158C10.6175 21.725 9.76626 22.0426 9.23992 21.5603L8.16887 20.5789C7.9628 20.3901 7.67889 20.3112 7.40494 20.3665L5.98104 20.6544C5.28129 20.7958 4.71613 20.0844 5.01217 19.4348L5.61458 18.1129C5.73048 17.8585 5.71781 17.5641 5.58049 17.3207L4.86676 16.0554ZM585.517 23.6301C586.95 22.738 588.791 23.8474 588.672 25.5319L588.509 27.8491C588.462 28.5086 588.734 29.1506 589.239 29.5766L591.016 31.0732C592.308 32.1612 591.821 34.2548 590.182 34.6622L587.928 35.2227C587.287 35.3822 586.76 35.8388 586.511 36.4514L585.637 38.6035C585.001 40.168 582.86 40.3525 581.966 38.9198L580.736 36.949C580.386 36.3881 579.789 36.0283 579.13 35.9809L576.813 35.8144C575.128 35.6933 574.291 33.7138 575.377 32.4209L576.872 30.6424C577.297 30.1362 577.455 29.4572 577.296 28.8154L576.738 26.5603C576.333 24.921 577.957 23.5131 579.522 24.1467L581.676 25.0183C582.288 25.2664 582.983 25.2066 583.544 24.8573L585.517 23.6301ZM571.882 12.4455C572.178 11.4869 573.436 11.2675 574.038 12.0694L574.867 13.1725C575.103 13.4864 575.475 13.6686 575.868 13.6627L577.248 13.6421C578.251 13.6271 578.848 14.7555 578.272 15.5766L577.479 16.706C577.253 17.0275 577.195 17.4374 577.322 17.8091L577.768 19.115C578.092 20.0643 577.204 20.9811 576.245 20.6867L574.925 20.2816C574.55 20.1664 574.142 20.2375 573.828 20.4731L572.724 21.3008C571.921 21.9026 570.774 21.3408 570.758 20.3377L570.736 18.9579C570.729 18.5652 570.536 18.1992 570.214 17.9732L569.086 17.1788C568.266 16.6014 568.446 15.3374 569.395 15.0119L570.7 14.5642C571.071 14.4368 571.36 14.1394 571.475 13.7641L571.882 12.4455Z" stroke="#83828D" stroke-width="2"/>
</svg>
