<svg width="608" height="47" viewBox="0 0 608 47" fill="none" xmlns="http://www.w3.org/2000/svg">
<path d="M14 36.9362C13.6493 36.3144 14.1512 35.557 14.8605 35.6378L16.3039 35.8023C16.5816 35.8339 16.8577 35.7309 17.0467 35.5251L18.0295 34.4553C18.5125 33.9295 19.3879 34.1729 19.5302 34.8725L19.8199 36.296C19.8756 36.5699 20.0589 36.8006 20.3131 36.9168L21.6342 37.5209C22.2834 37.8178 22.3225 38.7256 21.7012 39.0771L20.4368 39.7925C20.1935 39.9301 20.0307 40.1757 19.9988 40.4534L19.8325 41.8965C19.7508 42.6057 18.8995 42.9234 18.3732 42.4411L17.3021 41.4597C17.096 41.2709 16.8121 41.1919 16.5382 41.2473L15.1143 41.5351C14.4145 41.6765 13.8494 40.9651 14.1454 40.3155L14.7478 38.9936C14.8637 38.7393 14.8511 38.4449 14.7137 38.2014L14 36.9362Z" fill="#83828D"/>
<path d="M576.266 16.7839C576.268 15.7807 577.406 15.2023 578.218 15.7923L579.334 16.6039C579.651 16.8349 580.06 16.9001 580.434 16.7794L581.747 16.3552C582.702 16.0469 583.604 16.9507 583.293 17.9046L582.866 19.2169C582.745 19.5903 582.809 19.9994 583.039 20.3175L583.848 21.4354C584.437 22.248 583.856 23.3849 582.853 23.3845L581.473 23.3839C581.08 23.3837 580.711 23.5713 580.479 23.8887L579.666 25.0037C579.075 25.8143 577.814 25.6132 577.505 24.659L577.079 23.3463C576.958 22.9728 576.665 22.6796 576.292 22.5576L574.98 22.1289C574.027 21.8173 573.828 20.556 574.64 19.9667L575.757 19.1561C576.075 18.9254 576.263 18.5566 576.264 18.1639L576.266 16.7839Z" fill="#83828D"/>
<path d="M9 1H569.424C568.899 1.69732 568.818 2.71097 569.432 3.51043L570.846 5.35301C571.249 5.87741 571.376 6.56269 571.19 7.19689L570.533 9.42523C570.056 11.0451 571.617 12.5232 573.208 11.9591L575.398 11.1831C576.021 10.9622 576.712 11.0526 577.258 11.4262L579.174 12.739C580.567 13.6933 582.455 12.6661 582.41 10.978L582.349 8.65579C582.332 7.99489 582.631 7.36546 583.155 6.96218L584.996 5.54519C586.334 4.5151 585.94 2.40219 584.321 1.923L582.094 1.26382C581.891 1.20397 581.702 1.11442 581.531 1H593.39L593.759 5.13438C593.815 5.77117 593.564 6.3967 593.083 6.8175L587.515 11.6857C586.286 12.7606 586.793 14.776 588.385 15.1408L595.594 16.7932C596.217 16.9361 596.734 17.3682 596.986 17.956L599.895 24.7559C600.537 26.2572 602.611 26.3976 603.45 24.9965L607 19.0668V38C607 42.4183 603.418 46 599 46H8.99999C5.29588 46 2.17975 43.4826 1.26915 40.0653C1.56501 40.0167 1.86027 39.9055 2.13928 39.7229L3.83906 38.6104C4.44027 38.2169 5.19336 38.1346 5.86541 38.3888L7.76548 39.1076C9.48207 39.757 11.2113 38.1867 10.73 36.4156L10.1972 34.4553C10.0088 33.7619 10.1631 33.0202 10.6126 32.4596L11.8834 30.8747C13.0315 29.4428 12.0724 27.3129 10.2393 27.2234L8.21019 27.1243C7.49252 27.0893 6.83484 26.7132 6.44058 26.1125L5.3259 24.4142C4.31885 22.8798 1.99684 23.1338 1.34525 24.8495L1 25.7586V9C1 4.58172 4.58172 1 9 1ZM14.8605 35.6378L16.3039 35.8023C16.5816 35.8339 16.8577 35.7309 17.0467 35.5251L18.0295 34.4553C18.5125 33.9295 19.3879 34.1729 19.5302 34.8725L19.8199 36.296C19.8756 36.5699 20.0589 36.8006 20.3131 36.9168L21.6342 37.5209C22.2834 37.8178 22.3225 38.7256 21.7012 39.0771L20.4368 39.7925C20.1935 39.9301 20.0307 40.1757 19.9988 40.4534L19.8325 41.8965C19.7508 42.6057 18.8995 42.9234 18.3732 42.4411L17.3021 41.4597C17.096 41.2709 16.8121 41.1919 16.5382 41.2473L15.1143 41.5351C14.4145 41.6765 13.8494 40.9651 14.1454 40.3155L14.7478 38.9936C14.8637 38.7393 14.8511 38.4449 14.7137 38.2014L14 36.9362C13.6493 36.3144 14.1512 35.557 14.8605 35.6378ZM578.218 15.7923L579.334 16.6039C579.651 16.8349 580.06 16.9001 580.434 16.7794L581.747 16.3552C582.702 16.0469 583.604 16.9507 583.293 17.9046L582.866 19.2169C582.745 19.5903 582.809 19.9994 583.039 20.3175L583.848 21.4354C584.437 22.248 583.856 23.3849 582.853 23.3845L581.473 23.3839C581.08 23.3837 580.711 23.5713 580.479 23.8887L579.666 25.0037C579.075 25.8143 577.814 25.6132 577.505 24.659L577.079 23.3463C576.958 22.9728 576.665 22.6796 576.292 22.5576L574.98 22.1289C574.027 21.8173 573.828 20.556 574.64 19.9667L575.757 19.1561C576.075 18.9254 576.263 18.5566 576.264 18.1639L576.266 16.7839C576.268 15.7807 577.406 15.2023 578.218 15.7923Z" fill="#08061F"/>
<path fill-rule="evenodd" clip-rule="evenodd" d="M14.8605 35.6378L16.3039 35.8023C16.5816 35.8339 16.8577 35.7309 17.0467 35.5251L18.0295 34.4553C18.5125 33.9295 19.3879 34.1729 19.5302 34.8725L19.8199 36.296C19.8756 36.5699 20.0589 36.8006 20.3131 36.9168L21.6342 37.5209C22.2834 37.8178 22.3225 38.7256 21.7012 39.0771L20.4368 39.7925C20.1935 39.9301 20.0307 40.1757 19.9988 40.4534L19.8325 41.8965C19.7508 42.6057 18.8995 42.9234 18.3732 42.4411L17.3021 41.4597C17.096 41.2709 16.8121 41.1919 16.5382 41.2473L15.1143 41.5351C14.4145 41.6765 13.8494 40.9651 14.1454 40.3155L14.7478 38.9936C14.8637 38.7393 14.8511 38.4449 14.7137 38.2014L14 36.9362C13.6493 36.3144 14.1512 35.557 14.8605 35.6378ZM578.218 15.7923L579.334 16.6039C579.651 16.8349 580.06 16.9001 580.434 16.7794L581.747 16.3552C582.702 16.0469 583.604 16.9507 583.293 17.9046L582.866 19.2169C582.745 19.5903 582.809 19.9994 583.039 20.3175L583.848 21.4354C584.437 22.248 583.856 23.3849 582.853 23.3845L581.473 23.3839C581.08 23.3837 580.711 23.5713 580.479 23.8887L579.666 25.0037C579.075 25.8143 577.814 25.6132 577.505 24.659L577.079 23.3463C576.958 22.9728 576.665 22.6796 576.292 22.5576L574.98 22.1289C574.027 21.8173 573.828 20.556 574.64 19.9667L575.757 19.1561C576.075 18.9254 576.263 18.5566 576.264 18.1639L576.266 16.7839C576.268 15.7807 577.406 15.2023 578.218 15.7923Z" fill="#83828D"/>
<path d="M581.531 1H569.424C568.899 1.69732 568.818 2.71097 569.432 3.51043L570.846 5.35301C571.249 5.87741 571.376 6.56269 571.19 7.19689L570.533 9.42523C570.056 11.0451 571.617 12.5232 573.208 11.9591L575.398 11.1831C576.021 10.9622 576.712 11.0526 577.258 11.4262L579.174 12.739C580.567 13.6933 582.455 12.6661 582.41 10.978L582.349 8.65579C582.332 7.99489 582.631 7.36546 583.155 6.96218L584.996 5.54519C586.334 4.5151 585.94 2.40219 584.321 1.923L582.094 1.26382C581.891 1.20397 581.702 1.11442 581.531 1Z" fill="#83828D"/>
<path d="M581.531 1H569.424M581.531 1C581.702 1.11442 581.891 1.20397 582.094 1.26382L584.321 1.923C585.94 2.40219 586.334 4.5151 584.996 5.54519L583.155 6.96218C582.631 7.36546 582.332 7.99489 582.349 8.65579L582.41 10.978C582.455 12.6661 580.567 13.6933 579.174 12.739L577.258 11.4262C576.712 11.0526 576.021 10.9622 575.398 11.1831L573.208 11.9591C571.617 12.5232 570.056 11.0451 570.533 9.42523L571.19 7.19689C571.376 6.56269 571.249 5.87741 570.846 5.35301L569.432 3.51043C568.818 2.71097 568.899 1.69732 569.424 1M581.531 1H593.39L593.759 5.13438C593.815 5.77117 593.564 6.3967 593.083 6.8175L587.515 11.6857C586.286 12.7606 586.793 14.776 588.385 15.1408L595.594 16.7932C596.217 16.9361 596.734 17.3682 596.986 17.956L599.895 24.7559C600.537 26.2572 602.611 26.3976 603.45 24.9965L607 19.0668V38C607 42.4183 603.418 46 599 46H8.99999C5.29588 46 2.17975 43.4826 1.26915 40.0653C1.56501 40.0167 1.86027 39.9055 2.13928 39.7229L3.83906 38.6104C4.44027 38.2169 5.19336 38.1346 5.86541 38.3888L7.76548 39.1076C9.48207 39.757 11.2113 38.1867 10.73 36.4156L10.1972 34.4553C10.0088 33.7619 10.1631 33.0202 10.6126 32.4596L11.8834 30.8747C13.0315 29.4428 12.0724 27.3129 10.2393 27.2234L8.21019 27.1243C7.49252 27.0893 6.83484 26.7132 6.44058 26.1125L5.3259 24.4142C4.31885 22.8798 1.99684 23.1338 1.34525 24.8495L1 25.7586V9C1 4.58172 4.58172 1 9 1H569.424M16.3039 35.8023L14.8605 35.6378C14.1512 35.557 13.6493 36.3144 14 36.9362L14.7137 38.2014C14.8511 38.4449 14.8637 38.7393 14.7478 38.9936L14.1454 40.3155C13.8494 40.9651 14.4145 41.6765 15.1143 41.5351L16.5382 41.2473C16.8121 41.1919 17.096 41.2709 17.3021 41.4597L18.3732 42.4411C18.8995 42.9234 19.7508 42.6057 19.8325 41.8965L19.9988 40.4534C20.0307 40.1757 20.1935 39.9301 20.4368 39.7925L21.7012 39.0771C22.3225 38.7256 22.2834 37.8178 21.6342 37.5209L20.3131 36.9168C20.0589 36.8006 19.8756 36.5699 19.8199 36.296L19.5302 34.8725C19.3879 34.1729 18.5125 33.9295 18.0295 34.4553L17.0467 35.5251C16.8577 35.7309 16.5816 35.8339 16.3039 35.8023ZM579.334 16.6039L578.218 15.7923C577.406 15.2023 576.268 15.7807 576.266 16.7839L576.264 18.1639C576.263 18.5566 576.075 18.9254 575.757 19.1561L574.64 19.9667C573.828 20.556 574.027 21.8173 574.98 22.1289L576.292 22.5576C576.665 22.6796 576.958 22.9728 577.079 23.3463L577.505 24.659C577.814 25.6132 579.075 25.8143 579.666 25.0037L580.479 23.8887C580.711 23.5713 581.08 23.3837 581.473 23.3839L582.853 23.3845C583.856 23.3849 584.437 22.248 583.848 21.4354L583.039 20.3175C582.809 19.9994 582.745 19.5903 582.866 19.2169L583.293 17.9046C583.604 16.9507 582.702 16.0469 581.747 16.3552L580.434 16.7794C580.06 16.9001 579.651 16.8349 579.334 16.6039Z" stroke="#83828D" stroke-width="2"/>
</svg>
