<svg width="100%" height="100%" viewBox="0 0 38.169 41.5825" fill="none" xmlns="http://www.w3.org/2000/svg">
  <g transform="matrix(0.65 0 0 0.65 6.825 6.055)">
    <path d="M1.62788 23.8638C2.03675 25.1555 3.29144 25.3711 4.59985 25.7585C5.74396 26.0974 7.00768 26.0056 8.04361 25.4636C8.21498 25.1507 9.47801 24.4874 9.85112 24.4688L9.84808 24.3679C11.0259 23.8119 13.4098 21.198 14.1003 20.0601L12.5841 20.2816C10.6154 22.3568 7.62893 25.5572 4.4259 24.9837C4.15344 24.0991 4.34934 23.6028 4.17753 22.831C4.02992 22.3003 3.30014 21.0747 2.74796 20.8817C0.56928 20.1202 1.24651 22.659 1.62788 23.8638Z" fill="#f4ebb9"/>
    <path d="M18.7554 24.5066C16.5827 26.4227 16.1558 28.6111 15.5568 31.213C14.526 35.6903 19.7269 33.9035 17.9492 36.8098C15.7972 40.3283 12.2426 38.7502 15.6506 35.368C14.8581 34.6232 14.2096 33.6259 14.264 32.5044C14.4056 29.5855 15.7082 25.3931 18.5514 24.0198L18.7554 24.5066Z" fill="#f4ebb9"/>
    <path d="M24.2841 27.1365C23.0664 30.0199 21.2447 33.9725 23.4658 36.7933C24.127 36.7618 25.2671 36.6592 25.2714 37.6646C25.2768 38.9416 22.7165 42.2926 21.2994 41.4476C20.4411 40.413 21.6142 38.3929 22.4824 37.5878C20.1857 34.679 21.2874 31.5978 22.6448 28.3612C22.779 28.0413 23.6385 27.2593 23.5715 27L24.2841 27.1365Z" fill="#f4ebb9"/>
    <path d="M24.5703 13.4632C26.8469 13.4849 29.1152 14.2335 30.9698 12.337C32.7589 10.5074 32.9396 8.49069 32.3638 6.20439C30.3278 5.85253 27.5259 3.33386 28.3498 2.2064C28.973 1.35365 30.6404 2.03006 31.5379 2.68561C32.5392 3.41705 33.67 4.4478 33.7906 6.18121C33.984 8.96053 32.6952 12.926 30.1768 14.5662C28.6228 15.5784 26.2343 15.257 24.5544 14.8612L24.5703 13.4632Z" fill="#f4ebb9"/>
  </g>
  <g transform="matrix(1.18 0 0 1.18 -3.51 -3.114)">
    <path d="M16.55 13.24 Q19.5 4.37 22.45 13.24 Q31.79 13.31 24.27 18.85 Q27.10 27.76 19.5 22.32 Q11.90 27.76 14.73 18.85 Q7.21 13.31 16.55 13.24 Z" fill="#f4ebb9" stroke="#f4ebb9" stroke-width="1.3" stroke-linejoin="round"/>
    <circle cx="16.7" cy="17.3" r="1" fill="black"/>
    <circle cx="22.3" cy="17.3" r="1" fill="black"/>
    <path d="M20.8 18.5 Q19.5 19.8 18.2 18.5" stroke="black" stroke-width="0.6" stroke-linecap="round" fill="none"/>
  </g>
</svg>
